<svg width="24" height="26" viewBox="0 0 24 26" fill="none" xmlns="http://www.w3.org/2000/svg">
<path fill-rule="evenodd" clip-rule="evenodd" d="M6.36804 0.277359C7.77118 0.875747 9.91901 3.44154 10.7649 4.91536C11.1915 4.6136 11.7123 4.43629 12.2746 4.43629C12.8174 4.43629 13.3217 4.60158 13.7397 4.88448C14.5975 3.40596 16.7253 0.871597 18.1187 0.277359C20.5566 -0.762375 22.2775 1.49635 22.421 3.75508C22.5644 6.01381 21.0182 7.24355 19.0508 7.8423C18.5074 8.00771 16.0043 8.03078 14.7048 8.02693H9.84436C8.56433 8.03169 5.98816 8.01039 5.43591 7.8423C3.46851 7.24355 1.9223 6.01381 2.06573 3.75508C2.20917 1.49635 3.93011 -0.762375 6.36804 0.277359ZM9.65735 7.05354C9.65735 6.1714 10.0938 5.39119 10.7625 4.91707C9.8454 3.67995 6.67139 3.38289 6.36804 4.29292C5.92908 5.60976 8.1225 7.09114 9.75891 7.77791C9.69281 7.54787 9.65735 7.30482 9.65735 7.05354ZM14.8918 7.05354C14.8918 6.15352 14.4376 5.35963 13.7458 4.88863C14.6901 3.67543 17.8177 3.38991 18.1187 4.29292C18.5513 5.59084 16.4268 7.0486 14.7988 7.74782C14.8594 7.52675 14.8918 7.2939 14.8918 7.05354Z" fill="#FDD661"/>
<path d="M23.4924 9.01277H13.9047V13.1123H23.4924V9.01277Z" fill="#FDD661"/>
<path d="M0.49353 9.01277H9.91785V13.1123H0.49353V9.01277Z" fill="#FDD661"/>
<path d="M2.30005 14.1545H9.91785V25.4802H2.30005V14.1545Z" fill="#FDD661"/>
<path d="M21.6859 25.4802H13.9047V14.1545H21.6859V25.4802Z" fill="#FDD661"/>
</svg>
