<svg width="45" height="45" viewBox="0 0 45 45" fill="none" xmlns="http://www.w3.org/2000/svg">
<circle cx="22.2832" cy="22.8898" r="21.0726" fill="white" stroke="black" stroke-width="2"/>
<path d="M19.8232 18.8854L19.8232 18.8854L19.8203 18.8777C19.4716 17.9641 19.2832 16.986 19.2832 15.9665C19.2832 15.149 18.5391 14.6011 17.7832 14.6011H14.2832C13.5274 14.6011 12.7832 15.149 12.7832 15.9665C12.7832 24.4343 20.6874 31.1785 30.2832 31.1785C31.0391 31.1785 31.7832 30.6306 31.7832 29.8131V26.7928C31.7832 25.9753 31.0391 25.4274 30.2832 25.4274C29.09 25.4274 27.927 25.2609 26.8527 24.9539C26.3501 24.8059 25.7722 24.9122 25.366 25.2637L23.4085 26.9577C20.9326 25.7996 18.8923 24.0522 17.5509 21.9434L19.4304 20.3168C19.8612 19.944 20.0066 19.3903 19.8232 18.8854Z" fill="black" stroke="black"/>
</svg>
