<svg width="304" height="72" viewBox="0 0 304 72" fill="none" xmlns="http://www.w3.org/2000/svg">
<mask id="mask0" style="mask-type:alpha" maskUnits="userSpaceOnUse" x="4" y="0" width="296" height="64">
<rect x="4" width="296" height="63.7418" fill="#C4C4C4"/>
</mask>
<g mask="url(#mask0)">
<path d="M36.0915 79.2047L7.41135 -15.7698L-16.5347 88.0898L36.0915 79.2047Z" fill="#619974"/>
<path d="M70.0771 35.1607L73.8605 -101.04L7.45648 -15.743L70.0771 35.1607Z" fill="#7FA772"/>
<path d="M70.077 35.1607L7.3999 -15.7967L36.0264 79.0601L70.077 35.1607Z" fill="#82A066"/>
<path d="M95.3908 114.675L70.0771 35.1607L36.0136 79.0749L95.3908 114.675Z" fill="#9BA35A"/>
<path d="M164.369 54.5502L95.3372 114.675L151.736 175.114L164.369 54.5502Z" fill="#EBB435"/>
<path d="M243.848 130.546L164.347 54.6716L151.716 175.111L243.848 130.546Z" fill="#FFB731"/>
<path d="M164.347 54.6716L70.0128 35.2151L95.3372 114.707L164.347 54.6716Z" fill="#C1A746"/>
<path d="M129.666 -18.119L69.7618 35.1607L165.293 55.0468L129.666 -18.119Z" fill="#D5A53F"/>
<path d="M130.296 -17.3685L73.6145 -102.218L69.7618 35.1608L130.296 -17.3685Z" fill="#A5A75E"/>
<path d="M165.293 55.4219L193.669 -16.6182H130.296L165.293 55.4219Z" fill="#E59C33"/>
<path d="M243.597 32.0322L193.706 -16.6258L164.484 54.87L243.597 32.0322Z" fill="#F7992F"/>
<path d="M243.616 32.0438L230.213 -79.1722L193.735 -16.6258L243.616 32.0438Z" fill="#F98B2A"/>
<path d="M243.742 130.546C243.99 97.6078 244.107 32.9632 243.513 32.0193L164.446 54.8244L243.742 130.546Z" fill="#FEA231"/>
<path d="M301.29 124.868L243.575 31.9457L243.743 130.546L301.29 124.868Z" fill="#FAA035"/>
<path d="M327.375 79.2278L243.533 31.9211L301.349 124.949L327.375 79.2278Z" fill="#FF9132"/>
<path d="M306.059 -17.5231L230.124 -78.1158L243.575 32.0929L306.059 -17.5231Z" fill="#FD8225"/>
<path d="M327.375 79.5228L306.059 -18.1129L243.657 31.9703L327.375 79.5228Z" fill="#FF7719"/>
</g>
</svg>
