<svg width="297" height="64" viewBox="0 0 297 64" fill="none" xmlns="http://www.w3.org/2000/svg">
<mask id="mask0" style="mask-type:alpha" maskUnits="userSpaceOnUse" x="0" y="0" width="297" height="64">
<rect x="0.629883" width="296" height="63.7418" fill="#C4C4C4"/>
</mask>
<g mask="url(#mask0)">
<path d="M60.0991 20.6419L-3.64978 54.9284L10.8896 83.5565H71.8128L60.0991 20.6419Z" fill="#EBBD33"/>
<path d="M60.0991 20.7273L2.76445 -33.2044L-3.64978 55.2635L60.0991 20.7273Z" fill="#DAB137"/>
<path d="M72.8938 -86.8857L2.79152 -33.204L60.0646 20.7583L72.8938 -86.8857Z" fill="#EBB435"/>
<path d="M146.169 64.7029L60.0719 20.6703L71.8839 83.6309H133.376L146.169 64.7029Z" fill="#FECA38"/>
<path d="M153.606 -19.0335L72.8719 -86.7776L60.0447 20.7555L153.606 -19.0335Z" fill="#FFB731"/>
<path d="M146.142 64.7881L153.555 -19.1071L60.1533 20.7271L146.142 64.7881Z" fill="#FCBC38"/>
<path d="M220.023 37.4169L212.063 -24.1361L153.283 -19.0334L220.023 37.4169Z" fill="#FFA535"/>
<path d="M146.051 65.2488C170.215 55.68 219.152 37.346 220.159 37.346L153.444 -18.977L146.051 65.2488Z" fill="#FEB03A"/>
<path d="M146.051 64.7219L219.956 37.3104L216.576 83.6307H160.849L146.051 64.7219Z" fill="#FEBA3B"/>
<path d="M246.258 83.4845L219.922 37.4523L216.431 83.4845H246.258Z" fill="#FFAC32"/>
<path d="M237.169 -65.116L212.032 -24.0706L219.922 37.4878L299.843 -65.116H237.169Z" fill="#FEBA3B"/>
<path d="M299.709 46.531L330.403 -34.0967L299.176 -64.3028L219.854 37.5586L299.709 46.531Z" fill="#FEB03A"/>
<path d="M300.352 46.5477L219.939 37.5226L246.291 83.5911H291.947L300.352 46.5477Z" fill="#FCBC38"/>
</g>
</svg>
