<svg width="296" height="64" viewBox="0 0 296 64" fill="none" xmlns="http://www.w3.org/2000/svg">
<mask id="mask0" style="mask-type:alpha" maskUnits="userSpaceOnUse" x="0" y="0" width="296" height="64">
<rect width="296" height="63.7418" fill="#C4C4C4"/>
</mask>
<g mask="url(#mask0)">
<path d="M66.3679 34.5168L58.5204 -24.8937L0.573006 -19.9685L66.3679 34.5168Z" fill="#FFA535"/>
<path d="M-6.55569 61.3799C17.2656 52.1441 65.5094 34.4483 66.502 34.4483L0.732362 -19.9142L-6.55569 61.3799Z" fill="#FEB03A"/>
<path d="M-6.55569 60.8713L66.3015 34.414L62.9702 79.122H8.0322L-6.55569 60.8713Z" fill="#FEBA3B"/>
<path d="M92.2303 78.9809L66.2678 34.551L62.8261 78.9809H92.2303Z" fill="#FFAC32"/>
<path d="M83.2705 -64.4473L58.4897 -24.8306L66.268 34.5851L145.057 -64.4473H83.2705Z" fill="#FF8932"/>
<path d="M144.924 43.3136L175.183 -34.5076L144.399 -63.6623L66.201 34.6535L144.924 43.3136Z" fill="#FF7E2F"/>
<path d="M145.559 43.3297L66.2847 34.6187L92.2642 79.0836H137.273L145.559 43.3297Z" fill="#FF9334"/>
<path d="M188.897 79.0151L145.01 43.0486L137.172 79.0151H188.897Z" fill="#F97F2C"/>
<path d="M262.686 23.6596L174.635 -34.2266L144.735 43.3296L188.863 79.152H208.043L262.686 23.6596Z" fill="#F65E2F"/>
<path d="M250.617 79.1518L263.042 23.3235L207.943 79.1518L250.617 79.1518Z" fill="#ED5629"/>
<path d="M304.016 59.2334L262.687 23.9407L250.206 79.0508H282.228L304.016 59.2334Z" fill="#ED4F2A"/>
<path d="M231.416 -55.8635L175.184 -33.6645L262.79 23.922L231.416 -55.8635Z" fill="#FC4D32"/>
<path d="M262.686 23.9402L305.14 -91.3852L231.416 -55.8639L262.686 23.9402Z" fill="#EF462D"/>
<path d="M341.961 24.5028L331.534 -4.49486H273.266L262.138 24.5028L303.863 59.1814L341.961 24.5028Z" fill="#FA4B30"/>
</g>
</svg>
