<svg width="304" height="72" viewBox="0 0 304 72" fill="none" xmlns="http://www.w3.org/2000/svg">
<mask id="mask0" style="mask-type:alpha" maskUnits="userSpaceOnUse" x="4" y="0" width="296" height="64">
<rect x="4" width="296" height="63.7418" fill="#C4C4C4"/>
</mask>
<g mask="url(#mask0)">
<path d="M81.9504 37.7641L92.2611 -32.7188L-1.87566 -15.86L-2.01587 -5.1532L81.9504 37.7641Z" fill="#2B646B"/>
<path d="M-1.98712 44.3621L81.9654 37.4474L-1.98712 -5.21191L-1.98712 44.3621Z" fill="#316572"/>
<path d="M34.4347 95.7135L82.2467 36.8589L-2.04315 44.3621V65.9518L34.4347 95.7135Z" fill="#294F62"/>
<path d="M82.2468 36.2704L34.0944 96.0189L38.3722 168.987L102.497 117.49L82.2468 36.2704Z" fill="#244056"/>
<path d="M127.246 38.9189L82.2465 36.5647L102.5 117.579L127.246 38.9189Z" fill="#214151"/>
<path d="M176.464 97.1848L127.074 39.1656L102.529 117.491L176.464 169.282V97.1848Z" fill="#234457"/>
<path d="M126.662 39.1041L91.9875 -32.2239L82.0386 36.7019L126.662 39.1041Z" fill="#27515D"/>
<path d="M115.358 -59.4492L92.2228 -31.7311L127.246 40.6845L115.358 -59.4492Z" fill="#2B646B"/>
<path d="M221.745 -14.0504L117.965 -33.1781L126.956 39.2272L221.745 -14.0504Z" fill="#326673"/>
<path d="M234.659 47.5595L221.342 -13.8361L126.544 39.3504L234.659 47.5595Z" fill="#294F62"/>
<path d="M234.94 47.3628L127.05 39.2565L176.404 97.5016L234.94 47.3628Z" fill="#294F62"/>
<path d="M285.655 102.883L234.654 47.5164L176.117 97.355L285.655 102.883Z" fill="#2F5667"/>
<path d="M314.424 22.4435L234.603 47.5595L285.571 102.912L314.424 22.4435Z" fill="#3C7477"/>
<path d="M314.711 23.044L221.167 -14.4851L234.659 47.6182L314.711 23.044Z" fill="#357880"/>
<path d="M221.167 -14.1849L276.825 -58.9146L314.711 23.044L221.167 -14.1849Z" fill="#3A948A"/>
<path d="M313.85 22.7436L363.781 -31.5798L276.803 -58.9146L313.85 22.7436Z" fill="#45A18C"/>
<path d="M285.471 103.025L313.85 23.3442L342.831 48.2635L285.471 103.025Z" fill="#4F8D78"/>
<path d="M342.831 68.6794V48.2635L285.589 102.963L342.831 68.6794Z" fill="#4B7871"/>
</g>
</svg>
