<svg width="297" height="64" viewBox="0 0 297 64" fill="none" xmlns="http://www.w3.org/2000/svg">
<mask id="mask0" style="mask-type:alpha" maskUnits="userSpaceOnUse" x="0" y="0" width="297" height="64">
<rect x="0.314941" width="296" height="63.7418" fill="#C4C4C4"/>
</mask>
<g mask="url(#mask0)">
<path d="M32.4064 79.2046L3.72629 -15.7699L-20.2198 88.0897L32.4064 79.2046Z" fill="#619974"/>
<path d="M66.392 35.1607L70.1754 -101.04L3.77142 -15.743L66.392 35.1607Z" fill="#7FA772"/>
<path d="M66.392 35.1607L3.71484 -15.7968L32.3413 79.0601L66.392 35.1607Z" fill="#82A066"/>
<path d="M91.7057 114.675L66.3921 35.1606L32.3285 79.0748L91.7057 114.675Z" fill="#9BA35A"/>
<path d="M160.684 54.5502L91.6522 114.675L148.051 175.114L160.684 54.5502Z" fill="#EBB435"/>
<path d="M240.163 130.546L160.662 54.6715L148.031 175.111L240.163 130.546Z" fill="#FFB731"/>
<path d="M160.662 54.6716L66.3278 35.2151L91.6522 114.707L160.662 54.6716Z" fill="#C1A746"/>
<path d="M125.981 -18.119L66.0768 35.1607L161.608 55.0467L125.981 -18.119Z" fill="#D5A53F"/>
<path d="M126.611 -17.3685L69.9295 -102.218L66.0768 35.1607L126.611 -17.3685Z" fill="#A5A75E"/>
<path d="M161.608 55.4219L189.983 -16.6182H126.611L161.608 55.4219Z" fill="#E59C33"/>
<path d="M239.912 32.0321L190.021 -16.626L160.799 54.8699L239.912 32.0321Z" fill="#F7992F"/>
<path d="M239.931 32.0438L226.528 -79.1722L190.05 -16.6258L239.931 32.0438Z" fill="#F98B2A"/>
<path d="M240.057 130.546C240.305 97.6077 240.422 32.9631 239.828 32.0192L160.761 54.8243L240.057 130.546Z" fill="#FEA231"/>
<path d="M297.605 124.868L239.889 31.9456L240.057 130.546L297.605 124.868Z" fill="#FAA035"/>
<path d="M323.69 79.2277L239.848 31.921L297.664 124.948L323.69 79.2277Z" fill="#FF9132"/>
<path d="M302.374 -17.5231L226.439 -78.1158L239.889 32.0929L302.374 -17.5231Z" fill="#FD8225"/>
<path d="M323.69 79.5227L302.374 -18.113L239.972 31.9701L323.69 79.5227Z" fill="#FF7719"/>
</g>
</svg>
