<svg width="1908" height="767" viewBox="0 0 1908 767" fill="none" xmlns="http://www.w3.org/2000/svg">
<path d="M1.45654 356.096L110.275 205.083L205.769 350.915L1.45654 384.967V356.096Z" fill="#2B7C79"/>
<path d="M182.08 495.266L204.288 350.174L1.52952 384.879L1.22754 406.919L182.08 495.266Z" fill="#2B646B"/>
<path d="M1.28809 508.848L182.111 494.614L1.28809 406.798L1.28809 508.848Z" fill="#316572"/>
<path d="M1.58259 102.29L110.63 207.479L1.58252 356.011L1.58259 102.29Z" fill="#319D90"/>
<path d="M236.025 100.863L108.207 202.633L204.525 352.864L236.025 100.863Z" fill="#25726A"/>
<path d="M90.5942 1.48672L0.98584 102.075L111.236 209.296L90.5942 1.48672Z" fill="#2DA897"/>
<path d="M79.7359 614.556L182.717 493.402L1.16724 508.848V553.291L79.7359 614.556Z" fill="#294F62"/>
<path d="M0.98584 706.634L80.3916 614.581L0.98584 552.768V706.634Z" fill="#284C5C"/>
<path d="M88.3622 766.025L79.13 615.768L1.34814 706.245V766.025H88.3622Z" fill="#254659"/>
<path d="M182.717 492.191L79.0029 615.185L88.2169 765.393L226.333 659.383L182.717 492.191Z" fill="#244056"/>
<path d="M385.454 765.784L226.28 659.266L87.698 765.784L385.454 765.784Z" fill="#1C3B4D"/>
<path d="M279.64 497.643L182.717 492.797L226.341 659.568L279.64 497.643Z" fill="#214151"/>
<path d="M385.65 617.585L279.268 498.151L226.401 659.386L385.65 765.999V617.585Z" fill="#234457"/>
<path d="M278.381 498.024L203.697 351.193L182.269 493.079L278.381 498.024Z" fill="#27515D"/>
<path d="M237.236 100.257L90.4673 0.472351L110.025 208.084L237.236 100.257Z" fill="#28897E"/>
<path d="M1.32914 101.91L92.4962 0.979553H1.3291L1.32914 101.91Z" fill="#33C9AC"/>
<path d="M254.163 295.276L236.083 100.431L204.458 352.841L254.163 295.276Z" fill="#27515D"/>
<path d="M235.777 100.515L233.602 1.51666L92.1157 1.51666L235.777 100.515Z" fill="#21998B"/>
<path d="M351.981 204.42L236.025 100.257L259.044 350.44L351.981 204.42Z" fill="#26736B"/>
<path d="M254.036 295.149L204.204 352.208L279.64 501.277L254.036 295.149Z" fill="#2B646B"/>
<path d="M483.179 388.604L259.65 349.229L279.015 498.278L483.179 388.604Z" fill="#326673"/>
<path d="M483.785 390.421L351.416 201.953L259.234 349.418L483.785 390.421Z" fill="#2C7C79"/>
<path d="M350.832 203.616L366.378 1.48672L235.016 100.388L350.832 203.616Z" fill="#319D90"/>
<path d="M365.997 1.74035L233.368 0.979553L235.397 100.642L365.997 1.74035Z" fill="#33BDA4"/>
<path d="M467.689 127.396L366.251 1.48672L350.66 203.487L467.689 127.396Z" fill="#36B49C"/>
<path d="M483.285 390.12L467.182 127.903L350.66 203.23L483.285 390.12Z" fill="#33998E"/>
<path d="M510.993 515.43L482.31 389.045L278.127 498.531L510.993 515.43Z" fill="#294F62"/>
<path d="M511.6 515.025L279.218 498.338L385.52 618.237L511.6 515.025Z" fill="#294F62"/>
<path d="M620.833 629.315L510.982 515.341L384.902 617.935L620.833 629.315Z" fill="#2F5667"/>
<path d="M522.107 763.476L620.993 629.362L385.52 617.001L517.092 766.086L522.107 763.476Z" fill="#284C5C"/>
<path d="M744.44 714.397L620.953 629.315L517.092 765.844H538.71L744.44 714.397Z" fill="#375E6D"/>
<path d="M385.575 616.815V765.965H517.334L385.575 616.815Z" fill="#254659"/>
<path d="M682.797 463.728L510.873 515.43L620.651 629.375L682.797 463.728Z" fill="#3C7477"/>
<path d="M683.415 464.964L481.934 387.709L510.993 515.551L683.415 464.964Z" fill="#357880"/>
<path d="M481.934 388.327L601.814 296.249L683.415 464.964L481.934 388.327Z" fill="#3A948A"/>
<path d="M601.834 296.239L466.801 127.396L483.17 388.327L601.834 296.239Z" fill="#319D90"/>
<path d="M623.465 81.1617L366.378 1.74033L602.133 296.739L623.465 81.1617Z" fill="#48B797"/>
<path d="M623.465 0.852751V82.3978L366.504 2.0527L623.465 0.852751Z" fill="#3EAE96"/>
<path d="M789.127 352.54L623.142 83.0173L602.094 296.924L789.127 352.54Z" fill="#3EAE96"/>
<path d="M681.561 464.345L789.106 352.519L601.766 296.249L681.561 464.345Z" fill="#45A18C"/>
<path d="M680.267 464.734L789.1 352.481L743.983 516.879L680.267 464.734Z" fill="#4F8F7F"/>
<path d="M620.436 629.608L681.561 465.582L743.983 516.879L620.436 629.608Z" fill="#4F8D78"/>
<path d="M743.983 558.906V516.879L620.692 629.479L743.983 558.906Z" fill="#4B7871"/>
<path d="M744.601 714.651V558.425L620.884 629.415L744.601 714.651Z" fill="#466D68"/>
<path d="M730.712 765.905L743.775 713.955L538.831 765.905H730.712Z" fill="#284C5C"/>
<path d="M756.41 765.829L743.898 713.393L729.433 765.829H756.41Z" fill="#3E5755"/>
<path d="M813.836 596.393L744.368 559.581V715.736L813.836 596.393Z" fill="#5A7C63"/>
<path d="M863.117 721.08L813.784 596.351L744.962 714.549L863.117 721.08Z" fill="#708059"/>
<path d="M851.836 765.885L863.117 719.299L744.042 714.478L756.243 765.885H851.836Z" fill="#677554"/>
<path d="M842.876 502.634L813.843 596.41L743.774 560.175L842.876 502.634Z" fill="#678664"/>
<path d="M842.93 502.582L743.818 516.742L743.818 560.157L842.93 502.582Z" fill="#58886C"/>
<path d="M843.052 502.81L789.042 352.519L743.946 516.87L843.052 502.81Z" fill="#619974"/>
<path d="M914.179 217.584L789.148 352.583L622.65 82.2098L914.179 217.584Z" fill="#5AB58A"/>
<path d="M780.751 33.186L762.872 0.979553H623.244V82.6369L724.96 130.059L780.751 33.186Z" fill="#42C5A6"/>
<path d="M914.268 217.803L780.624 32.8056L724.707 130.313L914.268 217.803Z" fill="#53BD97"/>
<path d="M781.18 34.1164L803.447 1.10635H762.746L781.18 34.1164Z" fill="#49BA9A"/>
<path d="M907.874 0.979553H803.32L780.586 33.5226L913.761 217.295L907.874 0.979553Z" fill="#60B188"/>
<path d="M907.054 433.113L914.179 217.584L789.127 352.561L907.054 433.113Z" fill="#7FA772"/>
<path d="M907.054 433.113L789.02 352.476L842.93 502.582L907.054 433.113Z" fill="#82A066"/>
<path d="M954.725 558.939L907.054 433.113L842.906 502.605L954.725 558.939Z" fill="#9BA35A"/>
<path d="M813.784 596.587L954.725 558.94L842.818 502.546L813.784 596.587Z" fill="#80915B"/>
<path d="M862.585 720.553L954.554 558.987L813.784 596.528L862.585 720.553Z" fill="#8E9351"/>
<path d="M944.46 715.143L954.524 558.99L861.93 721.674L944.46 715.143Z" fill="#B4A443"/>
<path d="M969.509 765.685L942.679 714.549L862.151 721.71L851.591 765.685H969.509Z" fill="#747B4E"/>
<path d="M1060.9 654.374L942.679 715.142L969.642 765.882H1082.62L1060.9 654.374Z" fill="#EBBD33"/>
<path d="M1060.9 654.526L954.574 558.939L942.679 715.737L1060.9 654.526Z" fill="#DAB137"/>
<path d="M1084.63 463.796L954.625 558.94L1060.83 654.581L1084.63 463.796Z" fill="#EBB435"/>
<path d="M1220.51 732.466L1060.85 654.425L1082.75 766.014H1196.79L1220.51 732.466Z" fill="#FECA38"/>
<path d="M1234.3 584.055L1084.58 463.988L1060.8 654.576L1234.3 584.055Z" fill="#FFB731"/>
<path d="M1220.46 732.618L1234.21 583.925L1061 654.526L1220.46 732.618Z" fill="#FCBC38"/>
<path d="M1084.58 463.988L906.933 433.2L954.624 558.99L1084.58 463.988Z" fill="#C1A746"/>
<path d="M1019.27 348.802L906.46 433.113L1086.37 464.582L1019.27 348.802Z" fill="#D5A53F"/>
<path d="M1020.46 349.989L913.716 215.719L906.46 433.113L1020.46 349.989Z" fill="#A5A75E"/>
<path d="M1077.56 252.667L915.367 218.177L1020.46 350.583L1077.56 252.667Z" fill="#C09B4D"/>
<path d="M1139.76 351.164L1077.56 252.667L1019.9 351.457L1139.76 351.164Z" fill="#E09436"/>
<path d="M1086.37 465.176L1139.8 351.177H1020.46L1086.37 465.176Z" fill="#E59C33"/>
<path d="M1090.52 73.8973L1077.46 252.615L913.585 218.178L1090.52 73.8973Z" fill="#B69C52"/>
<path d="M1069.24 1.39981L1089.83 74.5634L913.62 218.305L907.779 1.39981L1069.24 1.39981Z" fill="#8E9260"/>
<path d="M1208.08 253.94L1090.4 75.0422L1077.48 252.533L1208.08 253.94Z" fill="#C3954A"/>
<path d="M1139.82 351.328L1207.64 253.697L1077.34 252.577L1139.82 351.328Z" fill="#F0872C"/>
<path d="M1233.83 428.163L1139.87 351.164L1084.84 464.302L1233.83 428.163Z" fill="#F7992F"/>
<path d="M1233.86 428.181L1208.62 252.188L1139.93 351.164L1233.86 428.181Z" fill="#F98B2A"/>
<path d="M1234.1 584.056C1234.57 531.932 1234.79 429.636 1233.67 428.142L1084.77 464.23L1234.1 584.056Z" fill="#FEA231"/>
<path d="M1342.48 575.07L1233.79 428.026L1234.1 584.055L1342.48 575.07Z" fill="#FAA035"/>
<path d="M1357.47 684.106L1342.71 575.012L1233.7 584.056L1357.47 684.106Z" fill="#FFA535"/>
<path d="M1220.29 733.434C1265.1 716.475 1355.85 683.98 1357.72 683.98L1234 584.155L1220.29 733.434Z" fill="#FEB03A"/>
<path d="M1220.29 732.5L1357.34 683.917L1351.08 766.014H1247.73L1220.29 732.5Z" fill="#FEBA3B"/>
<path d="M1196.52 766.014L1220.29 732.501L1247.87 766.014H1196.52Z" fill="#FFC43B"/>
<path d="M1406.12 765.755L1357.28 684.169L1350.81 765.755H1406.12Z" fill="#FFAC32"/>
<path d="M1389.27 502.38L1342.65 575.128L1357.28 684.232L1505.49 502.38H1389.27Z" fill="#FF8932"/>
<path d="M1391.6 502.847L1233.71 427.987L1342.59 575.197L1391.6 502.847Z" fill="#FF9132"/>
<path d="M1351.46 349.745L1208.46 253.86L1233.79 428.259L1351.46 349.745Z" fill="#FD8225"/>
<path d="M1391.6 503.314L1351.46 348.811L1233.94 428.065L1391.6 503.314Z" fill="#FF7719"/>
<path d="M1518.56 316.603L1350.99 349.745L1390.67 502.38L1518.56 316.603Z" fill="#FF732B"/>
<path d="M1406.07 209.434L1207.69 253.589L1352.34 350.509L1406.07 209.434Z" fill="#FF7328"/>
<path d="M1518.56 317.07L1406.07 209.551L1352.39 349.745L1518.56 317.07Z" fill="#FF6C27"/>
<path d="M1608.21 447.113L1517.16 315.67L1390.55 502.304L1608.21 447.113Z" fill="#FF6029"/>
<path d="M1561.04 558.393L1607.28 447.31L1389.72 502.482L1503.63 503.313L1561.04 558.393Z" fill="#FE642E"/>
<path d="M1505.24 700.26L1562.16 557.358L1504.26 503.822L1357.16 684.357L1505.24 700.26Z" fill="#FF7E2F"/>
<path d="M1506.44 700.289L1357.31 684.293L1406.18 765.943H1490.85L1506.44 700.289Z" fill="#FF9334"/>
<path d="M1587.96 765.818L1505.4 699.773L1490.66 765.818H1587.96Z" fill="#F97F2C"/>
<path d="M1726.77 664.169L1561.13 557.874L1504.89 700.289L1587.9 766.069H1623.98L1726.77 664.169Z" fill="#F65E2F"/>
<path d="M1704.06 766.069L1727.44 663.552L1623.79 766.069L1704.06 766.069Z" fill="#ED5629"/>
<path d="M1804.51 729.493L1726.77 664.685L1703.29 765.883H1763.52L1804.51 729.493Z" fill="#ED4F2A"/>
<path d="M1667.94 518.142L1562.16 558.906L1726.96 664.651L1667.94 518.142Z" fill="#FC4D32"/>
<path d="M1670.01 519.69L1607.17 447.423L1560.36 559.704L1670.01 519.69Z" fill="#FF6029"/>
<path d="M1574.03 205.448L1517.16 315.918L1607.57 446.419L1659.17 323.612L1574.03 205.448Z" fill="#FE522E"/>
<path d="M1807.26 452.611L1657.62 322.064L1607.06 447.451L1669.49 519.174L1807.26 452.611Z" fill="#FC4A30"/>
<path d="M1906.98 359.748L1656.59 323.612L1806.23 452.611L1906.98 359.748Z" fill="#EF462D"/>
<path d="M1726.77 664.685L1806.63 452.915L1667.94 518.142L1726.77 664.685Z" fill="#EF462D"/>
<path d="M1856.8 612.57L1806.55 452.927L1746.59 612.57H1856.8Z" fill="#F04C2D"/>
<path d="M1875.89 665.717L1856.28 612.469H1746.67L1725.73 665.717L1804.22 729.397L1875.89 665.717Z" fill="#FA4B30"/>
<path d="M1907.36 558.39L1856.22 612.661L1873.83 667.265L1906.88 646.561L1907.36 558.39Z" fill="#D34A25"/>
<path d="M1906.88 359.461L1806.26 452.574L1856.7 612.661L1906.88 558.746V359.461Z" fill="#C53F1B"/>
<path d="M1893.09 765.596L1873.75 666.863L1906.98 646.465V765.596H1893.09Z" fill="#C53F1B"/>
<path d="M1763.05 765.82L1874.23 666.959L1893.19 765.82H1763.05Z" fill="#D94C28"/>
<path d="M1803.59 233.62L1571.97 206.996L1659.17 326.192L1803.59 233.62Z" fill="#FB4E2C"/>
<path d="M1906.69 218.592L1802.62 233.828L1660.72 325.16L1906.69 359.94V218.592Z" fill="#E94F25"/>
<path d="M1089.92 74.4677L1406.15 209.434L1207.89 253.534L1089.92 74.4677Z" fill="#FD8225"/>
<path d="M1574.5 208.459L1405.96 209.576L1517.27 315.872L1574.5 208.459Z" fill="#FF642B"/>
<path d="M1242.57 53.6869L1144.89 1.11252H1069.14L1089.83 74.755L1242.57 53.6869Z" fill="#E07D30"/>
<path d="M1406.33 209.576L1242.19 53.5911L1089.92 74.6592L1406.33 209.576Z" fill="#FF7626"/>
<path d="M1481.6 1.39981L1241.73 53.2296L1144.22 1.39981H1481.6Z" fill="#FF7626"/>
<path d="M1406.04 209.31L1481.4 1.39981L1241.12 53.4283L1406.04 209.31Z" fill="#FE6E26"/>
<path d="M1536.56 1.30405H1481.5L1405.92 209.59L1573 208.544L1536.56 1.30405Z" fill="#F96324"/>
<path d="M1572.94 208.884L1675.8 1.39981L1536.09 0.825226L1572.94 208.884Z" fill="#F75729"/>
<path d="M1804.17 234.344L1675.8 1.49557L1573.01 208.601L1804.17 234.344Z" fill="#E94F25"/>
<path d="M1906.85 156.92L1675.42 1.11252L1803.84 234.036L1906.85 218.348V156.92Z" fill="#D34A25"/>
<path d="M1906.98 1.20828H1675.71L1906.98 157.495V1.20828Z" fill="#C53F1B"/>
</svg>
